# 3ds Max Wavefront OBJ Exporter v0.99 - (c)2007 guruware
# File Created: 21.09.2024 22:49:23

mtllib cofre.mtl

#
# object part_015
#

v  -0.4719 0.5702 -0.6656
v  -0.5303 0.4358 -0.4807
v  -0.4680 0.5724 -0.6654
v  -0.4232 0.6648 -0.8149
v  -0.4190 0.6670 -0.8152
v  -0.4047 0.6916 -0.8631
v  -0.4013 0.6925 -0.8610
v  -0.3800 0.7172 -0.9059
v  -0.0016 0.7880 -0.9760
v  -0.0016 0.7874 -0.9719
v  0.1430 0.7788 -0.9700
v  -0.1469 0.7780 -0.9658
v  -0.1463 0.7786 -0.9699
v  -0.2781 0.7555 -0.9493
v  -0.2772 0.7559 -0.9536
v  -0.3446 0.7361 -0.9301
v  -0.3464 0.7362 -0.9338
v  -0.3772 0.7180 -0.9030
v  -0.0012 0.4318 -0.4680
v  -0.2831 0.1192 -0.0930
v  -0.4873 0.4179 -0.4842
v  -0.6253 0.1899 -0.1872
v  -0.5881 0.2891 -0.3020
v  -0.1405 0.1214 -0.0486
v  -0.3184 0.1001 -0.0374
v  -0.4640 0.0666 -0.0193
v  -0.6260 0.0260 -0.0424
v  -0.6569 0.0944 -0.0861
v  -0.6678 0.0130 -0.0064
v  -0.6635 -0.0308 0.0399
v  -0.6601 -0.0287 0.0386
v  -0.5802 0.0189 0.0093
v  -0.6564 -0.0266 0.0372
v  0.2815 0.1195 -0.0933
v  -0.0008 0.1461 -0.1076
v  0.1390 0.1216 -0.0487
v  -0.0008 0.1254 -0.0507
v  0.4626 0.0672 -0.0198
v  0.3170 0.1005 -0.0377
v  0.6246 0.0268 -0.0431
v  0.5789 0.0196 0.0087
v  0.6552 -0.0258 0.0366
v  0.6589 -0.0279 0.0379
v  0.6554 0.0952 -0.0867
v  0.6235 0.1907 -0.1878
v  0.6665 0.0138 -0.0071
v  0.6622 -0.0300 0.0392
v  0.4850 0.4185 -0.4847
v  0.4203 0.6653 -0.8154
v  0.4692 0.5708 -0.6661
v  0.5280 0.4364 -0.4812
v  0.5862 0.2899 -0.3026
v  0.3311 0.6987 -0.9081
v  -0.0016 0.7505 -0.9408
v  0.2740 0.7563 -0.9539
v  0.3433 0.7366 -0.9341
v  0.3769 0.7177 -0.9063
v  0.4016 0.6921 -0.8635
v  -0.3342 0.6983 -0.9078
v  0.6631 0.0159 -0.0064
v  0.6517 0.0958 -0.0856
v  0.6594 0.0161 -0.0062
v  0.6481 0.0959 -0.0849
v  0.6202 0.1918 -0.1859
v  0.4764 0.1892 -0.1620
v  0.4195 0.3380 -0.3307
v  0.2527 0.2410 -0.1972
v  0.5779 0.2934 -0.3031
v  0.6165 0.1918 -0.1855
v  0.5819 0.2920 -0.3024
v  0.5240 0.4388 -0.4808
v  -0.0012 0.5275 -0.5400
v  -0.0011 0.3970 -0.3714
v  0.1929 0.5144 -0.5320
v  0.2156 0.3836 -0.3639
v  0.3720 0.4785 -0.5068
v  0.5198 0.4397 -0.4816
v  0.4653 0.5729 -0.6659
v  0.4610 0.5739 -0.6667
v  -0.0014 0.6493 -0.7185
v  0.1701 0.6366 -0.7092
v  0.3282 0.6058 -0.6862
v  0.4160 0.6675 -0.8156
v  0.4117 0.6686 -0.8161
v  0.3983 0.6929 -0.8614
v  0.3949 0.6930 -0.8599
v  0.3741 0.7185 -0.9034
v  0.3711 0.7178 -0.9013
v  0.2957 0.6975 -0.8375
v  0.1440 0.7766 -0.9627
v  0.1547 0.7239 -0.8561
v  0.2755 0.7538 -0.9459
v  0.3393 0.7353 -0.9275
v  0.3414 0.7365 -0.9305
v  0.2749 0.7559 -0.9496
v  0.1436 0.7782 -0.9660
v  -0.0015 0.7364 -0.8668
v  -0.0016 0.7859 -0.9684
v  -0.1729 0.6364 -0.7090
v  -0.1578 0.7238 -0.8560
v  -0.1472 0.7764 -0.9625
v  -0.1953 0.5142 -0.5318
v  -0.5221 0.4391 -0.4810
v  -0.3744 0.4780 -0.5064
v  -0.3310 0.6054 -0.6859
v  -0.5799 0.2927 -0.3025
v  -0.4216 0.3375 -0.3303
v  -0.2177 0.3834 -0.3637
v  -0.6182 0.1910 -0.1849
v  -0.6219 0.1910 -0.1853
v  -0.4781 0.1886 -0.1616
v  -0.2545 0.2407 -0.1969
v  -0.0009 0.2612 -0.2098
v  -0.6532 0.0950 -0.0849
v  -0.6496 0.0951 -0.0843
v  -0.6644 0.0151 -0.0058
v  -0.6608 0.0153 -0.0055
v  -0.0305 0.7199 -0.8310
v  0.0275 0.7199 -0.8311
v  -0.0306 0.7549 -0.9018
v  0.0274 0.7550 -0.9018
v  -0.4147 0.6681 -0.8157
v  -0.3979 0.6925 -0.8595
v  -0.3742 0.7174 -0.9009
v  -0.3425 0.7349 -0.9272
v  -0.2987 0.6971 -0.8372
v  -0.2787 0.7534 -0.9456
v  -0.4637 0.5733 -0.6662
v  -0.5264 0.4381 -0.4803
v  -0.5839 0.2913 -0.3018
# 130 vertices

vn -0.4261 0.8061 0.4106
vn -0.4794 0.7665 0.4274
vn -0.4477 0.7845 0.4290
vn -0.4128 0.8400 0.3522
vn -0.4267 0.8312 0.3564
vn -0.4209 0.8518 0.3119
vn -0.4137 0.8580 0.3045
vn -0.4536 0.8484 0.2731
vn -0.4039 0.8685 0.2873
vn -0.4337 0.8745 0.2173
vn -0.4792 0.7905 0.3814
vn -0.4588 0.8113 0.3624
vn -0.0196 0.9891 0.1461
vn 0.0186 0.9891 0.1461
vn 0.1050 0.9850 0.1367
vn -0.0893 0.9864 0.1381
vn -0.1247 0.9862 0.1088
vn -0.1960 0.9778 0.0740
vn -0.2222 0.9715 0.0830
vn -0.2811 0.9507 0.1310
vn -0.3252 0.9315 0.1630
vn -0.4119 0.8913 0.1896
vn -0.0083 -0.8025 -0.5966
vn 0.1218 -0.9130 -0.3893
vn -0.2253 -0.7387 -0.6352
vn -0.4203 -0.6150 -0.6672
vn -0.3771 -0.6451 -0.6646
vn -0.3379 -0.6894 -0.6407
vn -0.4409 -0.6687 -0.5987
vn -0.3909 -0.7167 -0.5775
vn 0.0982 -0.9588 -0.2666
vn 0.1470 -0.9605 -0.2362
vn 0.2427 -0.9458 -0.2160
vn 0.0110 -0.8357 -0.5491
vn -0.4200 -0.5996 -0.6812
vn -0.3853 -0.6136 -0.6892
vn -0.3622 -0.6593 -0.6589
vn 0.0158 -0.8262 -0.5631
vn 0.3560 -0.8370 -0.4157
vn 0.3105 -0.8647 -0.3948
vn 0.3341 -0.8401 -0.4274
vn 0.3228 -0.8417 -0.4328
vn -0.1211 -0.9132 -0.3892
vn 0.0004 -0.9166 -0.3997
vn -0.0510 -0.9592 -0.2782
vn 0.0004 -0.9398 -0.3418
vn 0.0519 -0.9591 -0.2782
vn 0.0425 -0.7829 -0.6207
vn -0.2417 -0.9461 -0.2157
vn -0.1461 -0.9607 -0.2360
vn -0.0973 -0.9589 -0.2665
vn -0.0106 -0.8357 -0.5491
vn -0.3098 -0.8651 -0.3944
vn -0.3335 -0.8405 -0.4271
vn -0.3222 -0.8421 -0.4325
vn 0.3854 -0.6131 -0.6896
vn 0.3975 -0.6137 -0.6822
vn 0.3624 -0.6588 -0.6593
vn -0.0153 -0.8263 -0.5631
vn -0.3554 -0.8374 -0.4153
vn 0.2256 -0.7385 -0.6354
vn 0.4648 -0.5843 -0.6652
vn 0.4074 -0.7173 -0.5652
vn 0.4411 -0.6682 -0.5992
vn 0.3381 -0.6890 -0.6410
vn 0.3772 -0.6446 -0.6650
vn 0.1748 -0.7152 -0.6767
vn 0.0001 -0.7386 -0.6742
vn 0.3588 -0.7131 -0.6023
vn 0.0074 -0.6273 -0.7788
vn -0.0216 -0.6626 -0.7487
vn 0.1741 -0.5950 -0.7846
vn 0.3016 -0.6637 -0.6845
vn 0.2966 -0.7571 -0.5821
vn -0.1746 -0.7154 -0.6766
vn -0.0074 -0.6273 -0.7788
vn 0.0175 -0.6735 -0.7389
vn 0.0001 -0.6844 -0.7291
vn -0.0133 -0.6844 -0.7290
vn -0.1741 -0.5953 -0.7844
vn -0.3015 -0.6641 -0.6842
vn -0.2962 -0.7574 -0.5818
vn 0.1433 0.6972 0.7024
vn 0.1130 0.7026 0.7025
vn 0.1285 0.7012 0.7013
vn 0.1164 0.7231 0.6809
vn 0.1277 0.7049 0.6977
vn 0.1548 0.7048 0.6923
vn 0.1219 0.7256 0.6772
vn 0.1402 0.7207 0.6789
vn 0.0825 0.7078 0.7015
vn 0.1500 0.7374 0.6585
vn 0.0974 0.7528 0.6510
vn 0.0906 0.7762 0.6239
vn 0.0542 0.7632 0.6438
vn 0.1143 0.7769 0.6191
vn 0.0961 0.7559 0.6476
vn 0.1270 0.7763 0.6175
vn 0.0684 0.7503 0.6576
vn 0.1447 0.7441 0.6523
vn 0.1620 0.7873 0.5950
vn 0.0294 0.8084 0.5879
vn -0.0002 0.7779 0.6284
vn 0.0482 0.8052 0.5910
vn 0.0499 0.7780 0.6263
vn 0.0965 0.8070 0.5826
vn 0.0925 0.8035 0.5881
vn 0.0683 0.8005 0.5955
vn 0.0771 0.8187 0.5690
vn 0.1207 0.8215 0.5572
vn 0.0338 0.8498 0.5260
vn 0.0308 0.8255 0.5635
vn 0.0941 0.8333 0.5448
vn 0.0858 0.8223 0.5626
vn 0.1177 0.8431 0.5248
vn 0.0867 0.8377 0.5392
vn 0.1483 0.8680 0.4739
vn 0.1584 0.8734 0.4606
vn 0.1950 0.8860 0.4206
vn 0.1326 0.8564 0.4990
vn 0.1648 0.8849 0.4357
vn 0.2061 0.8862 0.4148
vn 0.1644 0.8868 0.4320
vn 0.1290 0.8861 0.4451
vn 0.1289 0.8813 0.4545
vn 0.1289 0.8836 0.4502
vn 0.1230 0.8603 0.4948
vn 0.0964 0.8891 0.4475
vn 0.1014 0.8827 0.4589
vn 0.1174 0.8873 0.4461
vn 0.1286 0.8888 0.4398
vn 0.1248 0.8877 0.4432
vn 0.1179 0.8725 0.4742
vn 0.0989 0.8972 0.4304
vn 0.0946 0.8855 0.4550
vn 0.0902 0.8731 0.4792
vn 0.0899 0.8490 0.5206
vn 0.0952 0.8601 0.5012
vn 0.0343 0.8432 0.5365
vn 0.0322 0.8248 0.5645
vn 0.0364 0.8607 0.5078
vn 0.0379 0.8803 0.4729
vn 0.0388 0.8864 0.4613
vn 0.0409 0.8981 0.4379
vn 0.0415 0.9083 0.4162
vn 0.0406 0.8988 0.4366
vn 0.0432 0.9267 0.3733
vn -0.0342 0.8495 0.5265
vn -0.0384 0.8800 0.4734
vn -0.0393 0.8860 0.4621
vn -0.0431 0.9078 0.4171
vn -0.0457 0.9266 0.3733
vn -0.0488 0.8048 0.5915
vn -0.0311 0.8247 0.5647
vn -0.0395 0.8987 0.4368
vn -0.0298 0.8025 0.5959
vn -0.0350 0.8441 0.5350
vn -0.0371 0.8618 0.5059
vn -0.1068 0.8036 0.5855
vn -0.0971 0.8065 0.5833
vn -0.1220 0.8231 0.5546
vn -0.1187 0.7793 0.6153
vn -0.0894 0.7774 0.6227
vn -0.0505 0.7771 0.6273
vn -0.0980 0.7509 0.6531
vn -0.0973 0.7578 0.6452
vn -0.0929 0.7510 0.6538
vn -0.0544 0.7631 0.6440
vn 0.0034 0.7645 0.6446
vn -0.0723 0.7535 0.6534
vn -0.1255 0.7262 0.6759
vn -0.1239 0.7214 0.6813
vn -0.1404 0.7205 0.6791
vn -0.1211 0.7551 0.6444
vn -0.1189 0.7061 0.6981
vn -0.1458 0.6993 0.6998
vn -0.1528 0.6982 0.6994
vn -0.1260 0.7027 0.7002
vn -0.0827 0.7056 0.7038
vn -0.0737 0.7626 0.6426
vn -0.0305 0.7626 0.6461
vn -0.0001 0.7607 0.6491
vn 0.0302 0.7627 0.6461
vn 0.0725 0.7580 0.6482
vn 0.0915 0.7515 0.6534
vn -0.0003 0.8960 0.4441
vn -0.1669 0.8573 0.4870
vn -0.1526 0.8727 0.4638
vn -0.1751 0.8730 0.4552
vn -0.1958 0.8858 0.4208
vn -0.1655 0.8847 0.4358
vn -0.1651 0.8866 0.4321
vn -0.2069 0.8860 0.4150
vn -0.1297 0.8860 0.4452
vn -0.1263 0.8868 0.4447
vn -0.1270 0.8854 0.4471
vn -0.1255 0.8885 0.4414
vn -0.1312 0.8861 0.4446
vn -0.1263 0.8817 0.4546
vn -0.1166 0.8865 0.4478
vn -0.1163 0.8723 0.4749
vn -0.0938 0.8818 0.4621
vn -0.1038 0.8943 0.4354
vn -0.1039 0.8784 0.4664
vn -0.1013 0.8970 0.4303
vn -0.0892 0.8729 0.4797
vn -0.1350 0.8599 0.4923
vn -0.1040 0.8389 0.5343
vn -0.0964 0.8414 0.5317
vn -0.0959 0.8602 0.5009
vn -0.1296 0.8812 0.4547
vn -0.0870 0.8372 0.5400
vn -0.0715 0.8062 0.5873
vn -0.1255 0.7815 0.6112
vn -0.0871 0.8362 0.5415
vn -0.0875 0.8252 0.5580
vn 0.4099 0.8415 0.3521
vn 0.4258 0.8071 0.4089
vn 0.4277 0.8312 0.3552
vn 0.4529 0.8489 0.2726
vn 0.4154 0.8538 0.3137
vn 0.4785 0.7906 0.3821
vn 0.4580 0.8113 0.3633
vn 0.4111 0.8918 0.1890
vn 0.4889 0.8413 0.2306
vn 0.4789 0.7668 0.4274
vn 0.4475 0.7856 0.4274
vn 0.3109 0.9412 0.1321
vn 0.4041 0.8904 0.2095
vn 0.2870 0.9410 0.1791
vn 0.2199 0.9719 0.0845
vn 0.1924 0.9785 0.0746
vn 0.1235 0.9864 0.1088
vn 0.0566 0.9885 0.1402
vn 0.4117 0.8608 0.2992
vn 0.4031 0.8690 0.2868
vn 0.4203 0.8523 0.3115
vn -0.4671 0.7608 0.4507
vn -0.4352 0.7551 0.4904
vn -0.4383 0.7503 0.4949
vn -0.4718 0.7287 0.4964
vn -0.4386 0.7264 0.5292
vn -0.3737 0.7118 0.5947
vn -0.3740 0.6912 0.6183
vn -0.4411 0.6478 0.6212
vn -0.3947 0.6575 0.6418
vn -0.3327 0.6618 0.6718
vn -0.1556 0.6951 0.7018
vn 0.3967 0.6558 0.6423
vn 0.3370 0.6615 0.6700
vn 0.1700 0.7083 0.6852
vn 0.4385 0.6445 0.6263
vn 0.3727 0.6934 0.6167
vn 0.3732 0.7140 0.5924
vn 0.4384 0.7263 0.5294
vn 0.4722 0.7278 0.4973
vn 0.4384 0.7510 0.4937
vn 0.4350 0.7561 0.4890
vn 0.4666 0.7611 0.4505
# 259 vertex normals

vt 0.0233 0.4930 0.0000
vt 0.0118 0.4930 0.0000
vt 0.3137 0.5667 0.0000
vt 0.3393 0.5285 0.0000
vt 0.3648 0.5674 0.0000
vt 0.3722 0.5297 0.0000
vt 0.3710 0.5461 0.0000
vt 0.3688 0.5676 0.0000
vt 0.3660 0.5890 0.0000
vt 0.3636 0.6035 0.0000
vt 0.3264 0.5272 0.0000
vt 0.3425 0.5234 0.0000
vt 0.3542 0.5168 0.0000
vt 0.3684 0.5106 0.0000
vt 0.3725 0.5168 0.0000
vt 0.3714 0.5065 0.0000
vt 0.3699 0.5010 0.0000
vt 0.3644 0.5094 0.0000
vt 0.3137 0.5328 0.0000
vt 0.3137 0.5275 0.0000
vt 0.3568 0.6130 0.0000
vt 0.3137 0.6178 0.0000
vt 0.3525 0.6202 0.0000
vt 0.3360 0.6218 0.0000
vt 0.3584 0.6169 0.0000
vt 0.3620 0.6130 0.0000
vt 0.3626 0.6086 0.0000
vt 0.3137 0.6212 0.0000
vt 0.3355 0.3525 0.0000
vt 0.3248 0.3533 0.0000
vt 0.3052 0.3516 0.0000
vt 0.3255 0.3404 0.0000
vt 0.2812 0.3471 0.0000
vt 0.2837 0.3254 0.0000
vt 0.2455 0.3168 0.0000
vt 0.2723 0.2916 0.0000
vt 0.2547 0.3408 0.0000
vt 0.3159 0.3229 0.0000
vt 0.2155 0.3327 0.0000
vt 0.1953 0.2535 0.0000
vt 0.2315 0.2533 0.0000
vt 0.1989 0.2830 0.0000
vt 0.2351 0.2861 0.0000
vt 0.2067 0.3100 0.0000
vt 0.1772 0.3242 0.0000
vt 0.1597 0.2537 0.0000
vt 0.1627 0.2795 0.0000
vt 0.1700 0.3035 0.0000
vt 0.1478 0.3168 0.0000
vt 0.1394 0.3143 0.0000
vt 0.1311 0.3107 0.0000
vt 0.1411 0.2988 0.0000
vt 0.1162 0.2759 0.0000
vt 0.1348 0.2776 0.0000
vt 0.1215 0.2958 0.0000
vt 0.1261 0.3056 0.0000
vt 0.1314 0.2539 0.0000
vt 0.1138 0.2540 0.0000
vt 0.1616 0.2279 0.0000
vt 0.1338 0.2301 0.0000
vt 0.1153 0.2320 0.0000
vt 0.1977 0.2241 0.0000
vt 0.2123 0.1746 0.0000
vt 0.2044 0.1969 0.0000
vt 0.1679 0.2038 0.0000
vt 0.2512 0.1656 0.0000
vt 0.2429 0.1897 0.0000
vt 0.2337 0.2205 0.0000
vt 0.2779 0.1598 0.0000
vt 0.2808 0.1807 0.0000
vt 0.2707 0.2146 0.0000
vt 0.2676 0.2531 0.0000
vt 0.3123 0.1824 0.0000
vt 0.3012 0.1542 0.0000
vt 0.3220 0.1652 0.0000
vt 0.3207 0.1523 0.0000
vt 0.3315 0.1530 0.0000
vt 0.3071 0.2048 0.0000
vt 0.3033 0.2317 0.0000
vt 0.3032 0.2529 0.0000
vt 0.3042 0.2741 0.0000
vt 0.3091 0.3009 0.0000
vt 0.9985 0.5972 0.0000
vt 0.9255 0.5972 0.0000
vt 0.9985 0.5016 0.0000
vt 0.9255 0.5016 0.0000
vt 0.1744 0.1831 0.0000
vt 0.1452 0.1913 0.0000
vt 0.1370 0.1934 0.0000
vt 0.1287 0.1970 0.0000
vt 0.1235 0.2020 0.0000
vt 0.1193 0.2121 0.0000
vt 0.1392 0.2089 0.0000
# 93 texture coords

o part_015
g part_015
usemtl Porsche_911_GT2_default
s 1
f 1/1/1 2/1/2 3/2/3 
f 4/1/4 1/1/1 5/2/5 
f 4/1/4 5/2/6 6/1/7 
f 7/2/8 6/1/7 5/2/5 
f 6/1/7 7/2/9 8/1/10 
f 3/2/11 5/2/5 1/1/12 
f 9/1/13 10/2/14 11/1/15 
f 10/2/14 9/1/13 12/2/16 
f 13/1/17 12/2/16 9/1/13 
f 12/2/16 13/1/17 14/2/18 
f 15/1/19 14/2/18 13/1/17 
f 14/2/18 15/1/19 16/2/20 
f 17/1/21 16/2/20 15/1/19 
f 16/2/20 17/1/21 18/2/22 
f 8/1/10 18/2/22 17/1/21 
f 18/2/22 8/1/10 7/2/8 
f 19/3/23 20/4/24 21/5/25 
f 22/6/26 23/7/27 21/5/25 
f 2/8/28 21/5/25 23/7/27 
f 21/5/25 2/8/28 1/9/29 
f 1/9/29 4/10/30 21/5/25 
f 24/11/31 25/12/32 20/4/24 
f 26/13/33 20/4/24 25/12/32 
f 27/14/34 20/4/24 26/13/33 
f 20/4/24 27/14/34 21/5/25 
f 21/5/25 27/14/34 22/6/35 
f 22/6/35 27/14/34 28/15/36 
f 28/15/36 27/14/34 29/16/37 
f 29/16/37 27/14/34 30/17/38 
f 31/17/39 30/17/38 27/14/34 
f 26/13/33 32/18/40 27/14/34 
f 33/17/41 27/14/34 32/18/40 
f 31/17/42 27/14/34 33/17/41 
f 19/3/23 34/4/43 35/19/44 
f 36/11/45 35/19/44 34/4/43 
f 37/20/46 35/19/44 36/11/45 
f 24/11/47 35/19/44 37/20/46 
f 20/4/24 35/19/44 24/11/47 
f 19/3/48 35/19/44 20/4/24 
f 38/13/49 39/12/50 34/4/43 
f 36/11/51 34/4/43 39/12/50 
f 34/4/43 40/14/52 38/13/49 
f 38/13/49 40/14/52 41/18/53 
f 41/18/53 40/14/52 42/17/54 
f 43/17/55 42/17/54 40/14/52 
f 44/15/56 40/14/52 45/6/57 
f 46/16/58 40/14/52 44/15/56 
f 47/17/59 40/14/52 46/16/58 
f 40/14/52 47/17/59 43/17/60 
f 40/14/52 48/5/61 45/6/62 
f 49/10/63 50/9/64 48/5/61 
f 51/8/65 48/5/61 50/9/64 
f 52/7/66 48/5/61 51/8/65 
f 45/6/57 48/5/61 52/7/66 
f 53/21/67 48/5/61 54/22/68 
f 48/5/61 53/21/67 49/10/69 
f 53/21/67 54/22/68 55/23/70 
f 11/24/71 55/23/70 54/22/68 
f 55/23/70 56/25/72 53/21/67 
f 57/26/73 53/21/67 56/25/72 
f 58/27/74 53/21/67 57/26/73 
f 53/21/67 58/27/74 49/10/63 
f 59/21/75 15/23/76 54/22/68 
f 13/24/77 54/22/68 15/23/76 
f 9/28/78 54/22/68 13/24/77 
f 54/22/68 9/28/78 11/24/79 
f 15/23/76 59/21/75 17/25/80 
f 17/25/80 59/21/75 8/26/81 
f 8/26/81 59/21/75 6/27/82 
f 6/27/82 59/21/75 4/10/30 
f 4/10/30 59/21/75 21/5/25 
f 54/22/68 21/5/25 59/21/75 
f 21/5/25 54/22/68 19/3/23 
f 48/5/61 19/3/23 54/22/68 
f 19/3/23 48/5/61 34/4/43 
f 40/14/52 34/4/43 48/5/61 
f 43/29/83 60/30/84 42/29/85 
f 60/30/84 61/31/86 62/30/87 
f 61/31/88 63/31/89 62/30/87 
f 41/32/90 62/30/87 63/31/89 
f 42/29/85 62/30/87 41/32/90 
f 62/30/87 42/29/85 60/30/91 
f 61/31/86 64/33/92 63/31/89 
f 65/34/93 66/35/94 67/36/95 
f 66/35/94 65/34/93 68/37/96 
f 69/33/97 68/37/96 65/34/93 
f 68/37/96 69/33/97 70/37/98 
f 70/37/98 69/33/97 64/33/99 
f 64/33/99 69/33/97 63/31/89 
f 65/34/93 63/31/89 69/33/97 
f 63/31/89 65/34/93 41/32/90 
f 38/38/100 41/32/90 65/34/93 
f 70/37/98 71/39/101 68/37/96 
f 72/40/102 73/41/103 74/42/104 
f 75/43/105 74/42/104 73/41/103 
f 74/42/104 75/43/105 76/44/106 
f 66/35/94 76/44/106 75/43/105 
f 76/44/106 66/35/94 77/39/107 
f 68/37/96 77/39/107 66/35/94 
f 71/39/108 77/39/107 68/37/96 
f 77/39/107 71/39/108 78/45/109 
f 77/39/107 79/45/110 76/44/106 
f 80/46/111 72/40/102 81/47/112 
f 76/44/106 82/48/113 74/42/114 
f 82/48/113 76/44/106 79/45/115 
f 77/39/107 78/45/116 79/45/115 
f 83/49/117 79/45/115 78/45/116 
f 84/49/118 83/49/117 85/50/119 
f 83/49/117 84/49/118 79/45/115 
f 82/48/120 79/45/115 84/49/118 
f 86/50/121 84/49/118 85/50/122 
f 85/50/119 87/51/123 86/50/121 
f 88/51/124 86/50/121 87/51/125 
f 89/52/126 86/50/121 88/51/124 
f 86/50/121 89/52/126 84/49/118 
f 82/48/127 84/49/118 89/52/126 
f 90/53/128 91/54/129 92/55/130 
f 89/52/126 92/55/130 91/54/129 
f 92/55/130 89/52/126 93/56/131 
f 88/51/124 93/56/131 89/52/126 
f 93/56/131 88/51/124 94/56/132 
f 87/51/123 94/56/132 88/51/124 
f 93/56/131 94/56/132 92/55/130 
f 95/55/133 92/55/130 94/56/133 
f 96/53/134 90/53/128 95/55/135 
f 92/55/136 95/55/135 90/53/128 
f 91/54/129 81/47/137 89/52/138 
f 74/42/104 82/48/113 81/47/137 
f 89/52/138 81/47/137 82/48/113 
f 74/42/104 81/47/139 72/40/140 
f 81/47/139 91/54/141 80/46/111 
f 80/46/111 91/54/142 97/57/143 
f 90/53/144 97/57/143 91/54/142 
f 97/57/143 90/53/144 98/58/145 
f 96/53/146 98/58/145 90/53/144 
f 10/58/147 98/58/145 96/53/147 
f 99/59/148 97/57/149 100/60/150 
f 98/58/151 100/60/150 97/57/149 
f 100/60/150 98/58/151 101/61/151 
f 10/58/152 101/61/151 98/58/151 
f 99/59/148 102/62/153 80/46/154 
f 12/61/155 101/61/151 10/58/155 
f 72/40/156 80/46/157 102/62/153 
f 80/46/157 97/57/158 99/59/148 
f 103/63/159 104/64/160 105/65/161 
f 106/66/162 104/64/160 103/63/159 
f 107/67/163 104/64/160 106/66/162 
f 104/64/160 107/67/163 102/62/153 
f 108/68/164 102/62/153 107/67/163 
f 102/62/153 108/68/164 72/40/156 
f 73/41/103 72/40/156 108/68/164 
f 109/69/165 106/66/162 110/69/166 
f 106/66/162 109/69/165 107/67/163 
f 111/70/167 107/67/163 109/69/165 
f 107/67/163 111/70/167 108/68/164 
f 112/71/168 108/68/164 111/70/167 
f 108/68/164 112/71/168 73/41/103 
f 113/72/169 73/41/103 112/71/168 
f 73/41/103 113/72/169 75/43/105 
f 67/36/95 75/43/105 113/72/169 
f 75/43/105 67/36/95 66/35/94 
f 111/70/167 26/73/170 112/71/168 
f 110/69/166 114/74/171 109/69/165 
f 115/74/172 109/69/165 114/74/171 
f 109/69/165 115/74/172 111/70/167 
f 32/75/173 111/70/167 115/74/172 
f 111/70/167 32/75/173 26/73/174 
f 114/74/171 116/76/175 115/74/172 
f 31/77/176 33/77/177 117/76/178 
f 32/75/173 117/76/178 33/77/177 
f 115/74/172 117/76/178 32/75/173 
f 117/76/178 115/74/172 116/76/179 
f 116/76/175 31/77/179 117/76/178 
f 26/73/174 25/78/180 112/71/168 
f 24/79/181 112/71/168 25/78/180 
f 112/71/168 24/79/181 113/72/169 
f 37/80/182 113/72/169 24/79/181 
f 36/81/183 113/72/169 37/80/182 
f 113/72/169 36/81/183 67/36/95 
f 39/82/184 67/36/95 36/81/183 
f 67/36/95 39/82/184 65/34/93 
f 38/38/185 65/34/93 39/82/184 
f 118/83/186 119/84/186 120/85/186 
f 121/86/186 120/85/186 119/84/186 
f 3/87/187 122/88/188 5/88/189 
f 7/89/190 5/88/189 122/88/188 
f 7/89/190 123/89/191 18/90/192 
f 123/89/191 7/89/193 122/88/188 
f 18/90/192 124/90/194 16/91/195 
f 125/91/196 16/91/197 124/90/194 
f 16/91/195 125/91/196 14/92/198 
f 124/90/194 126/93/199 125/91/196 
f 127/92/200 125/91/196 126/93/199 
f 125/91/196 127/92/200 14/92/201 
f 127/92/202 126/93/199 101/61/203 
f 100/60/204 101/61/203 126/93/199 
f 101/61/203 12/61/205 127/92/200 
f 14/92/206 127/92/202 12/61/206 
f 105/65/207 126/93/199 128/87/208 
f 128/87/208 103/63/159 105/65/209 
f 126/93/210 105/65/209 100/60/204 
f 123/89/191 124/90/194 18/90/211 
f 124/90/194 123/89/191 126/93/199 
f 122/88/188 126/93/199 123/89/191 
f 126/93/199 122/88/188 128/87/208 
f 3/87/212 128/87/208 122/88/188 
f 129/63/213 128/87/208 3/87/212 
f 128/87/208 129/63/213 103/63/159 
f 130/66/214 103/63/159 129/63/213 
f 103/63/159 130/66/214 106/66/162 
f 110/69/166 106/66/162 130/66/214 
f 100/60/210 105/65/209 99/59/215 
f 104/64/160 99/59/215 105/65/209 
f 99/59/215 104/64/160 102/62/216 
f 83/2/217 78/2/218 49/1/219 
f 85/2/220 83/2/217 58/1/221 
f 50/1/222 49/1/219 78/2/223 
f 87/2/224 85/2/220 57/1/225 
f 78/2/218 71/2/226 50/1/227 
f 56/1/228 87/2/224 57/1/229 
f 87/2/224 56/1/228 94/2/230 
f 94/2/230 56/1/228 95/2/231 
f 55/1/232 95/2/231 56/1/228 
f 95/2/231 55/1/232 96/2/233 
f 11/1/15 96/2/233 55/1/232 
f 96/2/233 11/1/234 10/2/14 
f 58/1/235 57/1/229 85/2/236 
f 49/1/219 58/1/235 83/2/237 
f 3/2/11 2/1/2 129/2/238 
f 23/1/239 129/2/238 2/1/2 
f 129/2/238 23/1/239 130/2/240 
f 22/1/241 130/2/240 23/1/239 
f 130/2/240 22/1/241 110/2/242 
f 28/1/243 110/2/242 22/1/241 
f 110/2/242 28/1/243 114/2/244 
f 29/1/245 114/2/244 28/1/243 
f 114/2/244 29/1/245 116/2/246 
f 30/1/247 116/2/246 29/1/245 
f 116/2/246 30/1/247 31/2/248 
f 46/1/249 43/2/250 47/1/251 
f 43/2/250 46/1/249 60/2/252 
f 44/1/253 60/2/252 46/1/249 
f 60/2/252 44/1/253 61/2/254 
f 45/1/255 61/2/254 44/1/253 
f 61/2/254 45/1/255 64/2/256 
f 52/1/257 64/2/256 45/1/255 
f 64/2/256 52/1/257 70/2/258 
f 51/1/259 70/2/258 52/1/257 
f 70/2/258 51/1/259 71/2/226 
f 50/1/222 71/2/226 51/1/259 
# 250 faces

