# 3ds Max Wavefront OBJ Exporter v0.99 - (c)2007 guruware
# File Created: 23.09.2024 12:59:20

mtllib dado_animal.mtl

#
# object Box001
#

v  -9.0959 -10.0515 9.0959
v  -9.0959 -10.0515 -9.0959
v  9.0959 -10.0515 -9.0959
v  9.0959 -10.0515 9.0959
v  -9.0959 8.1403 9.0959
v  9.0959 8.1403 9.0959
v  9.0959 8.1403 -9.0959
v  -9.0959 8.1403 -9.0959
# 8 vertices

vn 0.0000 -1.0000 -0.0000
vn 0.0000 1.0000 -0.0000
vn 0.0000 0.0000 1.0000
vn 1.0000 0.0000 -0.0000
vn 0.0000 0.0000 -1.0000
vn -1.0000 0.0000 -0.0000
# 6 vertex normals

vt 0.6660 0.0883 0.0000
vt 0.6660 0.3504 0.0000
vt 0.4761 0.3504 0.0000
vt 0.4761 0.0883 0.0000
vt 0.4890 0.6324 0.0000
vt 0.6825 0.6324 0.0000
vt 0.6825 0.8917 0.0000
vt 0.4890 0.8917 0.0000
vt 0.6806 0.3625 0.0000
vt 0.8674 0.3625 0.0000
vt 0.8674 0.6240 0.0000
vt 0.6806 0.6240 0.0000
vt 0.1048 0.3685 0.0000
vt 0.2860 0.3685 0.0000
vt 0.2860 0.6185 0.0000
vt 0.1048 0.6185 0.0000
vt 0.2968 0.3535 0.0000
vt 0.4799 0.3535 0.0000
vt 0.4799 0.6208 0.0000
vt 0.2968 0.6208 0.0000
vt 0.4818 0.3603 0.0000
vt 0.6770 0.3603 0.0000
vt 0.6770 0.6218 0.0000
vt 0.4818 0.6218 0.0000
# 24 texture coords

o Box001
g Box001
usemtl 01___Default
s 2
f 1/1/1 2/2/1 3/3/1 
f 3/3/1 4/4/1 1/1/1 
s 4
f 5/5/2 6/6/2 7/7/2 
f 7/7/2 8/8/2 5/5/2 
s 8
f 1/9/3 4/10/3 6/11/3 
f 6/11/3 5/12/3 1/9/3 
s 16
f 4/13/4 3/14/4 7/15/4 
f 7/15/4 6/16/4 4/13/4 
s 32
f 3/17/5 2/18/5 8/19/5 
f 8/19/5 7/20/5 3/17/5 
s 64
f 2/21/6 1/22/6 5/23/6 
f 5/23/6 8/24/6 2/21/6 
# 12 faces

