# 3ds Max Wavefront OBJ Exporter v0.99 - (c)2007 guruware
# File Created: 28.10.2024 23:16:00

mtllib dado_8.mtl

#
# object Pyramid001
#

v  0.0000 0.7000 -0.0000
v  -0.5202 0.0000 0.5200
v  0.5202 0.0000 0.5200
v  0.5202 0.0000 -0.5200
v  -0.5202 0.0000 -0.5200
v  0.0000 0.0000 -0.0000
# 6 vertices

vn 0.0000 0.5963 0.8027
vn 0.8026 0.5965 -0.0000
vn 0.0000 0.5963 -0.8027
vn -0.8026 0.5965 -0.0000
vn 0.0000 -1.0000 -0.0000
# 5 vertex normals

vt 0.5000 1.0000 0.0000
vt 0.0000 0.0000 0.0000
vt 1.0000 0.0000 0.0000
vt 0.0000 1.0000 0.0000
vt 0.5000 0.5000 0.0000
vt 1.0000 1.0000 0.0000
# 6 texture coords

o Pyramid001
g Pyramid001
usemtl wire_228153184
s 4
f 1/1/1 2/2/1 3/3/1 
s 2
f 1/1/2 3/2/2 4/3/2 
s 16
f 1/1/3 4/2/3 5/3/3 
s 32
f 1/1/4 5/2/4 2/3/4 
s 8
f 2/4/5 6/5/5 3/6/5 
f 3/6/5 6/5/5 4/3/5 
f 4/3/5 6/5/5 5/2/5 
f 5/2/5 6/5/5 2/4/5 
# 8 faces

#
# object Pyramid002
#

v  -0.0000 -0.7000 -0.0000
v  0.5202 -0.0000 0.5200
v  -0.5202 0.0000 0.5200
v  -0.5202 0.0000 -0.5200
v  0.5202 -0.0000 -0.5200
v  0.0000 0.0000 -0.0000
# 6 vertices

vn -0.0000 -0.5963 0.8027
vn -0.8026 -0.5965 -0.0000
vn -0.0000 -0.5963 -0.8027
vn 0.8026 -0.5965 -0.0000
vn 0.0000 1.0000 -0.0000
# 5 vertex normals

vt 0.5000 1.0000 0.0000
vt 0.0000 0.0000 0.0000
vt 1.0000 0.0000 0.0000
vt 0.0000 1.0000 0.0000
vt 0.5000 0.5000 0.0000
vt 1.0000 1.0000 0.0000
# 6 texture coords

o Pyramid002
g Pyramid002
usemtl wire_228153184
s 4
f 7/7/6 8/8/6 9/9/6 
s 2
f 7/7/7 9/8/7 10/9/7 
s 16
f 7/7/8 10/8/8 11/9/8 
s 32
f 7/7/9 11/8/9 8/9/9 
s 8
f 8/10/10 12/11/10 9/12/10 
f 9/12/10 12/11/10 10/9/10 
f 10/9/10 12/11/10 11/8/10 
f 11/8/10 12/11/10 8/10/10 
# 8 faces

