# 3ds Max Wavefront OBJ Exporter v0.99 - (c)2007 guruware
# File Created: 15.10.2024 21:09:10

mtllib letrero.mtl

#
# object Box001
#

v  -6.3718 0.1434 0.8287
v  -6.3718 0.0121 0.3429
v  2.7616 0.0121 0.3429
v  2.7616 0.1434 0.8287
v  -6.3718 4.4774 -0.3429
v  2.7616 4.4774 -0.3429
v  2.7616 4.3461 -0.8287
v  -6.3718 4.3461 -0.8287
# 8 vertices

vn 0.0000 -0.9653 0.2610
vn -0.0000 0.9653 -0.2610
vn 0.0000 0.2610 0.9653
vn 1.0000 0.0000 -0.0000
vn -0.0000 -0.2610 -0.9653
vn -1.0000 0.0000 0.0000
# 6 vertex normals

vt 1.0000 0.0000 0.0000
vt 1.0000 1.0000 0.0000
vt 0.0000 1.0000 0.0000
vt 0.0000 0.0000 0.0000
# 4 texture coords

o Box001
g Box001
usemtl letrero_wire_177088027
s 2
f 1/1/1 2/2/1 3/3/1 
f 3/3/1 4/4/1 1/1/1 
s 4
f 5/4/2 6/1/2 7/2/2 
f 7/2/2 8/3/2 5/4/2 
s 8
f 1/4/3 4/1/3 6/2/3 
f 6/2/3 5/3/3 1/4/3 
s 16
f 4/4/4 3/1/4 7/2/4 
f 7/2/4 6/3/4 4/4/4 
s 32
f 3/4/5 2/1/5 8/2/5 
f 8/2/5 7/3/5 3/4/5 
s 64
f 2/4/6 1/1/6 5/2/6 
f 5/2/6 8/3/6 2/4/6 
# 12 faces

